<svg width="26" height="29" viewBox="0 0 26 29" fill="none" xmlns="http://www.w3.org/2000/svg">
<path d="M16.9952 4.66224C17.9318 3.4532 18.6418 1.74433 18.385 0C16.8542 0.106382 15.065 1.08577 14.0209 2.36236C13.0692 3.51905 12.2871 5.23974 12.5925 6.90977C14.266 6.96212 15.9932 5.95908 16.9952 4.66224Z" fill="black"/>
<path d="M25.2665 21.0707C24.5968 22.5635 24.2746 23.2305 23.4118 24.5526C22.2083 26.3983 20.5114 28.6965 18.4065 28.7134C16.5384 28.7336 16.0566 27.4891 13.5204 27.5043C10.9842 27.5178 10.4555 28.737 8.58397 28.7184C6.48082 28.6998 4.87282 26.6262 3.66934 24.7806C0.302275 19.6236 -0.0518875 13.5699 2.02441 10.3498C3.50149 8.06341 5.83124 6.72603 8.02 6.72603C10.2474 6.72603 11.6489 7.95534 13.4936 7.95534C15.2829 7.95534 16.3722 6.72266 18.9487 6.72266C20.8991 6.72266 22.9653 7.79154 24.4357 9.6355C19.6151 12.2934 20.3956 19.2183 25.2665 21.0707Z" fill="black"/>
</svg>
