<svg width="28" height="28" viewBox="0 0 28 28" fill="none" xmlns="http://www.w3.org/2000/svg">
<path d="M26.9952 14.1906C26.9952 13.2067 26.9092 12.2607 26.7497 11.3525H14.0352V16.7196H21.3006C20.9877 18.454 20.0365 19.9235 18.6067 20.9074V24.3887H22.9697C25.5224 21.9732 26.9952 18.4162 26.9952 14.1906Z" fill="#4285F4"/>
<path d="M14.0348 27.7505C17.6798 27.7505 20.7357 26.508 22.9693 24.3889L18.6064 20.9076C17.3975 21.7401 15.8512 22.232 14.0348 22.232C10.5187 22.232 7.54252 19.7913 6.48093 16.5117H1.9707V20.1066C4.19207 24.6412 8.75752 27.7505 14.0348 27.7505Z" fill="#34A853"/>
<path d="M6.48129 16.5109C6.21129 15.6784 6.05788 14.7892 6.05788 13.8747C6.05788 12.9602 6.21129 12.0709 6.48129 11.2384V7.64355H1.97107C1.05675 9.51668 0.535156 11.6358 0.535156 13.8747C0.535156 16.1136 1.05675 18.2327 1.97107 20.1058L6.48129 16.5109Z" fill="#FBBC05"/>
<path d="M14.0348 5.51847C16.0168 5.51847 17.7964 6.21852 19.1955 7.59341L23.0675 3.61381C20.7296 1.37489 17.6737 0 14.0348 0C8.75752 0 4.19207 3.10926 1.9707 7.64386L6.48093 11.2387C7.54252 7.9592 10.5187 5.51847 14.0348 5.51847Z" fill="#EA4335"/>
</svg>
